<svg
  version="1.1"
  id="favicon"
  xmlns="http://www.w3.org/2000/svg"
  xmlns:xlink="http://www.w3.org/1999/xlink"
  viewBox="-75 -75 670 670"
  xml:space="preserve"
>
  <path
    fill="#000000"
    opacity="1.000000"
    stroke="none"
    d="
M293.304626,395.682434 
	C289.843597,382.927155 286.506256,370.562256 283.130066,358.053314 
	C236.798996,358.053314 190.704285,358.053314 144.469788,358.053314 
	C136.293396,381.268433 127.022934,404.148193 124.733582,428.906708 
	C124.080750,435.966827 124.033699,443.297546 125.175987,450.263580 
	C127.431351,464.017487 138.142380,472.016876 155.195709,473.998322 
	C157.974472,474.321167 160.745926,474.706940 163.654907,475.080902 
	C163.654907,485.175140 163.654907,494.976013 163.654907,505.139099 
	C110.627319,505.139099 57.585804,505.139099 4.001516,505.139099 
	C4.001516,496.062988 3.938956,486.961578 4.095407,477.863922 
	C4.111582,476.923340 5.268923,475.410492 6.170765,475.163422 
	C29.128639,468.874298 42.787128,452.108124 54.340591,432.843262 
	C66.437523,412.672180 73.005013,390.225098 80.969620,368.372894 
	C124.044380,250.190018 166.979248,131.956177 209.965866,13.741190 
	C210.128464,13.294076 210.342026,12.865499 210.581558,12.313620 
	C254.406097,12.313620 298.205536,12.313620 342.495636,12.313620 
	C345.990204,24.322716 349.514984,36.414181 353.027344,48.509243 
	C388.352356,170.152847 423.638763,291.807678 459.065948,413.421539 
	C461.992920,423.469055 465.830383,433.253784 469.314423,443.136078 
	C475.418182,460.449127 487.384521,471.165680 505.512848,474.467773 
	C509.747467,475.239075 510.770721,477.000458 510.599487,481.043701 
	C510.262451,489.002319 510.500244,496.985260 510.500244,505.227966 
	C427.987732,505.227966 345.760376,505.227966 263.266052,505.227966 
	C263.266052,495.244446 263.266052,485.340149 263.266052,475.785980 
	C270.509033,473.819794 277.669800,472.308289 284.523163,469.916046 
	C295.309265,466.151062 300.502136,457.890503 301.017273,446.707397 
	C301.816833,429.349457 297.546631,412.713989 293.304626,395.682434 
M390.351746,357.093170 
	C361.578979,259.090759 332.784851,161.094620 304.128662,63.058140 
	C303.194763,59.863178 301.657959,59.425041 298.861847,59.444534 
	C284.530212,59.544445 270.197510,59.483711 255.865204,59.503338 
	C254.633469,59.505024 253.401962,59.683678 251.874329,59.803307 
	C291.117889,193.809830 330.224609,327.349091 369.260712,460.647156 
	C386.643341,460.647156 403.412781,460.647156 420.692993,460.647156 
	C410.615570,426.176086 400.628448,392.013916 390.351746,357.093170 
M269.000122,294.499451 
	C253.227081,236.898956 237.454041,179.298477 221.271652,120.203110 
	C200.562302,181.899963 180.322113,242.199081 160.017853,302.689148 
	C197.215347,302.689148 233.976273,302.689148 271.220428,302.689148 
	C270.494141,300.054291 269.838196,297.674561 269.000122,294.499451 
z"
  />
</svg>
